<svg width="27" height="20" viewBox="0 0 27 20" fill="none" xmlns="http://www.w3.org/2000/svg">
<path d="M1.5 8.75C0.809644 8.75 0.25 9.30964 0.25 10C0.25 10.6904 0.809644 11.25 1.5 11.25L1.5 8.75ZM26.5506 10.8839C27.0387 10.3957 27.0387 9.60427 26.5506 9.11612L18.5956 1.16117C18.1074 0.67301 17.316 0.67301 16.8278 1.16117C16.3397 1.64932 16.3397 2.44078 16.8278 2.92893L23.8989 10L16.8278 17.0711C16.3397 17.5592 16.3397 18.3507 16.8278 18.8388C17.316 19.327 18.1074 19.327 18.5956 18.8388L26.5506 10.8839ZM1.5 11.25L25.6667 11.25V8.75L1.5 8.75L1.5 11.25Z" fill="#4A98FF"/>
</svg>
