<svg width="185" height="58" viewBox="0 0 185 58" fill="none" xmlns="http://www.w3.org/2000/svg">
<rect x="3.34082" y="3.56055" width="47.0924" height="47.0924" rx="10.5255" stroke="#4A98FF" stroke-width="5.77054" stroke-linejoin="round"/>
<path d="M58.2309 30.8968L58.2319 30.8959C60.1905 28.9373 60.1905 25.7881 58.2319 23.8295C56.2733 21.871 53.1242 21.871 51.1656 23.8295L32.091 42.9041L26.6664 37.4795C24.7078 35.5209 21.5586 35.5209 19.6001 37.4795C17.6415 39.4381 17.6415 42.5873 19.6001 44.5458L28.5365 53.4823C30.4948 55.4405 33.6646 55.4408 35.6232 53.4832C35.6235 53.4829 35.6238 53.4826 35.6242 53.4823L58.2309 30.8968Z" fill="#4A98FF" stroke="white" stroke-width="5.77054"/>
<rect x="10.6043" y="14.9191" width="32.5653" height="5.26536" rx="2.63268" fill="#4A98FF" stroke="#4A98FF" stroke-width="0.877123"/>
<rect x="10.6043" y="25.1565" width="25.0578" height="5.26536" rx="2.63268" fill="#4A98FF" stroke="#4A98FF" stroke-width="0.877123"/>
<path d="M100.706 15.0924V31.5939L87.2684 15.0924H83.5433V39.4616H88.0342V22.9602L101.472 39.4616H105.197V15.0924H100.706ZM119.664 39.7053C125.443 39.7053 129.586 35.7366 129.586 30.1665C129.586 24.5964 125.443 20.6625 119.664 20.6625C113.955 20.6625 109.778 24.5964 109.778 30.1665C109.778 35.7366 113.955 39.7053 119.664 39.7053ZM119.664 35.9803C116.531 35.9803 114.164 33.7175 114.164 30.1665C114.164 26.6156 116.531 24.3527 119.664 24.3527C122.832 24.3527 125.2 26.6156 125.2 30.1665C125.2 33.7175 122.832 35.9803 119.664 35.9803ZM143.704 35.3537C143.043 35.8759 142.172 36.1196 141.267 36.1196C139.596 36.1196 138.691 35.1448 138.691 33.3345V24.492H143.669V21.0106H138.691V16.7634H134.339V21.0106H131.276V24.492H134.339V33.439C134.339 37.5469 136.672 39.7053 140.745 39.7053C142.312 39.7053 143.878 39.2876 144.923 38.4521L143.704 35.3537ZM165.367 30.271C165.367 24.4572 161.398 20.6625 155.967 20.6625C150.432 20.6625 146.359 24.6312 146.359 30.1665C146.359 35.7018 150.397 39.7053 156.628 39.7053C159.831 39.7053 162.442 38.6609 164.113 36.6766L161.781 33.996C160.458 35.3537 158.822 36.0151 156.733 36.0151C153.495 36.0151 151.232 34.2745 150.71 31.559H165.297C165.332 31.1413 165.367 30.6191 165.367 30.271ZM155.967 24.1438C158.822 24.1438 160.876 25.9889 161.224 28.6696H150.675C151.093 25.9541 153.147 24.1438 155.967 24.1438ZM175.291 39.7053C180.513 39.7053 183.716 37.4425 183.716 33.9612C183.716 26.6852 172.227 30.0273 172.227 26.2674C172.227 25.049 173.48 24.1787 176.126 24.1787C177.902 24.1787 179.677 24.5268 181.453 25.5712L183.124 22.2639C181.453 21.2543 178.633 20.6625 176.161 20.6625C171.148 20.6625 167.98 22.9602 167.98 26.4763C167.98 33.8915 179.468 30.5495 179.468 34.1004C179.468 35.3885 178.32 36.1544 175.569 36.1544C173.237 36.1544 170.73 35.3885 169.094 34.3093L167.423 37.6165C169.094 38.8002 172.192 39.7053 175.291 39.7053Z" fill="#4A98FF"/>
</svg>
