<svg width="11" height="13" viewBox="0 0 11 13" fill="none" xmlns="http://www.w3.org/2000/svg">
<path d="M1.24984 11.4583C1.24984 12.2375 1.88734 12.875 2.6665 12.875H8.33317C9.11234 12.875 9.74984 12.2375 9.74984 11.4583V4.375C9.74984 3.59583 9.11234 2.95833 8.33317 2.95833H2.6665C1.88734 2.95833 1.24984 3.59583 1.24984 4.375V11.4583ZM3.37484 4.375H7.62484C8.01442 4.375 8.33317 4.69375 8.33317 5.08333V10.75C8.33317 11.1396 8.01442 11.4583 7.62484 11.4583H3.37484C2.98525 11.4583 2.6665 11.1396 2.6665 10.75V5.08333C2.6665 4.69375 2.98525 4.375 3.37484 4.375ZM7.979 0.833333L7.47609 0.330417C7.34859 0.202917 7.16442 0.125 6.98026 0.125H4.01942C3.83525 0.125 3.65109 0.202917 3.52359 0.330417L3.02067 0.833333H1.24984C0.860254 0.833333 0.541504 1.15208 0.541504 1.54167C0.541504 1.93125 0.860254 2.25 1.24984 2.25H9.74984C10.1394 2.25 10.4582 1.93125 10.4582 1.54167C10.4582 1.15208 10.1394 0.833333 9.74984 0.833333H7.979Z" fill="#CECECE"/>
</svg>
