<svg width="550" height="150" viewBox="0 0 550 150" fill="none" xmlns="http://www.w3.org/2000/svg">
<rect x="8" y="8" width="111.161" height="111.161" rx="24.8452" stroke="white" stroke-width="14.1629" stroke-linejoin="round"/>
<path d="M137.567 72.5268L137.57 72.5245C142.193 67.9014 142.193 60.4678 137.57 55.8446C132.946 51.2214 125.513 51.2214 120.89 55.8446L75.8644 100.87L63.0597 88.0651C58.4365 83.442 51.0029 83.442 46.3797 88.0651C41.7566 92.6883 41.7566 100.122 46.3797 104.745L51.1956 99.9292L46.3797 104.745L67.4741 125.839C72.0965 130.462 79.5788 130.463 84.2021 125.842C84.2029 125.841 84.2036 125.84 84.2044 125.839L137.567 72.5268Z" fill="white" stroke="#4A98FF" stroke-width="13.6213"/>
<rect x="24.1102" y="33.7764" width="78.9403" height="14.4992" rx="7.24962" fill="white"/>
<rect x="24.1102" y="57.9419" width="61.219" height="14.4992" rx="7.24962" fill="white"/>
<path d="M218.372 66.3055C218.372 52.5821 209.004 43.625 196.185 43.625C183.119 43.625 173.504 52.993 173.504 66.059C173.504 79.125 183.036 88.5752 197.746 88.5752C205.306 88.5752 211.469 86.11 215.414 81.4259L209.908 75.0984C206.785 78.3032 202.923 79.8646 197.992 79.8646C190.35 79.8646 185.009 75.7558 183.776 69.346H218.208C218.29 68.3599 218.372 67.1273 218.372 66.3055ZM196.185 51.8426C202.923 51.8426 207.771 56.1979 208.593 62.5254H183.694C184.68 56.1157 189.528 51.8426 196.185 51.8426ZM251.741 78.3032C250.18 79.5359 248.126 80.1111 245.989 80.1111C242.045 80.1111 239.908 77.8102 239.908 73.537V52.6643H251.659V44.4467H239.908V34.4212H229.636V44.4467H222.404V52.6643H229.636V73.7835C229.636 83.4803 235.142 88.5752 244.756 88.5752C248.454 88.5752 252.152 87.5891 254.617 85.6169L251.741 78.3032ZM293.492 44.118L279.604 76.5775L265.799 44.118H255.116L274.263 88.1644L273.523 89.89C271.551 94.2454 269.414 95.9711 265.799 95.9711C263.005 95.9711 260.211 94.8206 258.238 92.9306L254.13 100.491C256.924 103.038 261.525 104.517 265.881 104.517C273.194 104.517 278.782 101.477 282.809 91.5336L303.353 44.118H293.492ZM351.272 30.4768V69.4282L319.552 30.4768H310.759V88H321.36V49.0486L353.08 88H361.873V30.4768H351.272ZM396.022 88.5752C409.664 88.5752 419.443 79.2072 419.443 66.059C419.443 52.9108 409.664 43.625 396.022 43.625C382.546 43.625 372.684 52.9108 372.684 66.059C372.684 79.2072 382.546 88.5752 396.022 88.5752ZM396.022 79.7824C388.627 79.7824 383.039 74.441 383.039 66.059C383.039 57.6771 388.627 52.3356 396.022 52.3356C403.5 52.3356 409.088 57.6771 409.088 66.059C409.088 74.441 403.5 79.7824 396.022 79.7824ZM452.768 78.3032C451.206 79.5359 449.152 80.1111 447.015 80.1111C443.071 80.1111 440.934 77.8102 440.934 73.537V52.6643H452.685V44.4467H440.934V34.4212H430.662V44.4467H423.431V52.6643H430.662V73.7835C430.662 83.4803 436.168 88.5752 445.783 88.5752C449.481 88.5752 453.178 87.5891 455.644 85.6169L452.768 78.3032ZM503.902 66.3055C503.902 52.5821 494.534 43.625 481.714 43.625C468.648 43.625 459.034 52.993 459.034 66.059C459.034 79.125 468.566 88.5752 483.275 88.5752C490.836 88.5752 496.999 86.11 500.943 81.4259L495.437 75.0984C492.315 78.3032 488.453 79.8646 483.522 79.8646C475.88 79.8646 470.538 75.7558 469.306 69.346H503.737C503.819 68.3599 503.902 67.1273 503.902 66.3055ZM481.714 51.8426C488.453 51.8426 493.301 56.1979 494.123 62.5254H469.223C470.209 56.1157 475.058 51.8426 481.714 51.8426ZM527.328 88.5752C539.654 88.5752 547.214 83.2338 547.214 75.0162C547.214 57.8414 520.096 65.7303 520.096 56.8553C520.096 53.9791 523.054 51.9247 529.3 51.9247C533.491 51.9247 537.682 52.7465 541.873 55.2118L545.817 47.405C541.873 45.0219 535.216 43.625 529.382 43.625C517.549 43.625 510.071 49.0486 510.071 57.3483C510.071 74.8518 537.189 66.9629 537.189 75.3449C537.189 78.3854 534.477 80.1933 527.985 80.1933C522.479 80.1933 516.562 78.3854 512.7 75.838L508.756 83.6447C512.7 86.4387 520.014 88.5752 527.328 88.5752Z" fill="white"/>
</svg>
